<svg width="20" height="20" viewBox="0 0 20 20" fill="none" xmlns="http://www.w3.org/2000/svg">
	<path fill-rule="evenodd" clip-rule="evenodd" d="M2.67315 1.61274C2.38026 1.31984 1.90539 1.31984 1.61249 1.61274C1.3196 1.90563 1.3196 2.3805 1.61249 2.6734L3.21795 4.27885C2.7712 4.3523 2.3552 4.5638 2.03091 4.88809C1.62235 5.29665 1.39282 5.85078 1.39282 6.42857V13.5714C1.39282 14.1492 1.62235 14.7034 2.03091 15.1119C2.43947 15.5205 2.9936 15.75 3.57139 15.75H11.4285C12.0063 15.75 12.5605 15.5205 12.969 15.1119C13.1556 14.9254 13.3048 14.7085 13.4119 14.4728L17.3268 18.3877C17.6197 18.6806 18.0945 18.6806 18.3874 18.3877C18.6803 18.0948 18.6803 17.6199 18.3874 17.327L13.3979 12.3375C13.3944 12.3339 13.391 12.3303 13.3874 12.3268L5.5303 4.46967C5.52678 4.46615 5.52322 4.46267 5.51964 4.45923L2.67315 1.61274ZM4.6891 5.75L12.1071 13.168V13.5714C12.1071 13.7514 12.0356 13.924 11.9084 14.0513C11.7811 14.1785 11.6085 14.25 11.4285 14.25H3.57139C3.39143 14.25 3.21883 14.1785 3.09157 14.0513C2.96431 13.924 2.89282 13.7514 2.89282 13.5714V6.42857C2.89282 6.2486 2.96431 6.07601 3.09157 5.94875C3.21883 5.82149 3.39143 5.75 3.57139 5.75H4.6891ZM9.04282 5.75H11.4285C11.6085 5.75 11.7811 5.82149 11.9084 5.94875C12.0356 6.07601 12.1071 6.2486 12.1071 6.42857V8.81429C12.1071 9.0132 12.1861 9.20396 12.3268 9.34462L13.0411 10.0589C13.3015 10.3193 13.7125 10.3521 14.011 10.1363L17.1071 7.89671V13.5714C17.1071 13.9856 17.4429 14.3214 17.8571 14.3214C18.2713 14.3214 18.6071 13.9856 18.6071 13.5714V6.42857C18.6071 6.14683 18.4492 5.88885 18.1983 5.76067C17.9474 5.6325 17.6458 5.65576 17.4175 5.82088L13.6497 8.54626L13.6071 8.50363V6.42857C13.6071 5.85078 13.3776 5.29665 12.969 4.88809C12.5605 4.47953 12.0063 4.25 11.4285 4.25H9.04282C8.62861 4.25 8.29282 4.58579 8.29282 5C8.29282 5.41421 8.62861 5.75 9.04282 5.75Z" fill="#E85D5D"/>
</svg>
