<svg width="20" height="20" viewBox="0 0 20 20" fill="none" xmlns="http://www.w3.org/2000/svg">
	<path fill-rule="evenodd" clip-rule="evenodd" d="M15.8675 8.43036C16.9775 8.28036 17.9375 8.88036 18.3075 9.80036C18.6875 10.7504 18.3575 11.8804 17.3375 12.4904C16.8675 12.7604 16.3775 13.2104 15.9475 13.7004C15.9475 13.7004 15.5275 14.1704 15.0475 13.7004C14.6475 13.3004 15.0475 12.7904 15.0475 12.7904C15.5475 12.2304 16.1175 11.7204 16.6975 11.3804C17.6375 10.8304 17.1175 9.56036 16.0375 9.70036C15.1575 9.81036 14.4975 10.2904 13.9775 10.8404C13.9625 10.8554 13.9475 10.8729 13.9325 10.8904C13.9175 10.9079 13.9025 10.9254 13.8875 10.9404C13.8038 11.0317 13.749 11.1288 13.6835 11.245C13.663 11.2815 13.6414 11.3198 13.6175 11.3604C13.5915 11.402 13.5682 11.4439 13.5456 11.4846C13.4377 11.6786 13.3451 11.8452 13.0475 11.8204C12.6675 11.7904 12.7075 11.3204 12.7075 11.3204V4.19036C12.7075 3.16036 11.6775 2.95036 11.2175 3.53036C11.0875 3.70036 11.0075 3.93036 11.0075 4.22036V8.75036C11.0075 8.75036 10.9875 9.17036 10.4875 9.17036C9.98752 9.17036 9.94752 8.75036 9.94752 8.75036V2.53036C9.94752 1.21036 8.26752 1.17036 8.26752 2.49036V2.82036V3.80036L8.25752 5.99036C8.25752 5.99036 8.31752 6.50036 7.73752 6.50036C7.15752 6.50036 7.18752 5.99036 7.18752 5.99036V3.80036C7.18752 3.52036 7.11752 3.30036 6.99752 3.14036C6.85752 2.95036 6.64752 2.82036 6.42752 2.82036C6.07407 2.82036 5.84223 3.07035 5.68759 3.23711C5.65409 3.27322 5.62422 3.30543 5.59752 3.33036C5.44752 3.47036 5.01752 3.68036 4.66752 3.33036C4.31752 2.98036 4.66752 2.40036 4.66752 2.40036C4.68752 2.37702 4.70641 2.35258 4.7253 2.32813C4.76307 2.27925 4.80085 2.23036 4.84752 2.19036C5.25752 1.76036 5.80752 1.55036 6.34752 1.55036C6.60752 1.55036 6.87752 1.60036 7.12752 1.70036C7.22752 1.39036 7.39752 1.11036 7.62752 0.870357C8.04752 0.440357 8.59752 0.240357 9.14752 0.250357C10.1575 0.280357 10.9875 1.01036 11.1775 2.05036C11.3875 1.97036 11.6075 1.93036 11.8375 1.93036C12.3775 1.92036 12.9275 2.12036 13.3475 2.55036C13.7775 2.98036 13.9775 3.57036 13.9775 4.18036V9.17036C14.4975 8.81036 15.1175 8.53036 15.8675 8.43036ZM17.0575 19.3506C16.8675 19.3506 16.6775 19.2806 16.5275 19.1306L14.0548 16.6579C13.6578 17.2107 13.2016 17.7044 12.6475 18.1002C11.5175 18.9202 10.1275 19.3002 8.47752 19.3002C6.46752 19.3002 4.69752 18.5802 3.42752 17.3002C2.15752 16.0202 1.45752 14.2402 1.45752 12.2602V6.78018C1.45752 6.17018 1.66752 5.59018 2.08752 5.15018C2.1526 5.07696 2.23092 5.02359 2.31171 4.96855L2.31172 4.96854L2.34364 4.94673L0.817476 3.42057C0.527476 3.13057 0.527476 2.65057 0.817476 2.36057C1.10748 2.07057 1.58748 2.07057 1.87748 2.36057L17.5875 18.0706C17.8775 18.3606 17.8775 18.8406 17.5875 19.1306C17.4475 19.2806 17.2575 19.3506 17.0575 19.3506ZM5.4975 8.10059L13.1511 15.7542C12.1422 17.2288 10.7253 18.0202 8.47752 18.0202C5.08752 18.0202 2.73752 15.6102 2.73752 12.2602V6.78018C2.73752 6.29606 2.97189 5.99006 3.25909 5.86218L4.4375 7.04059V9.47049C4.4375 9.84049 4.7875 10.0905 5.1275 9.98049C5.3475 9.90049 5.4975 9.70049 5.4975 9.47049V8.10059Z" fill="#5B5F97"/>
</svg>
