<svg width="20" height="20" viewBox="0 0 20 20" fill="none" xmlns="http://www.w3.org/2000/svg">
<path fill-rule="evenodd" clip-rule="evenodd" d="M7.49972 4.32129C6.33598 4.32129 5.39258 5.26469 5.39258 6.42843C5.39258 7.59217 6.33598 8.53557 7.49972 8.53557C8.66346 8.53557 9.60686 7.59217 9.60686 6.42843C9.60686 5.26469 8.66346 4.32129 7.49972 4.32129ZM3.89258 6.42843C3.89258 4.43626 5.50755 2.82129 7.49972 2.82129C9.49189 2.82129 11.1069 4.43626 11.1069 6.42843C11.1069 8.4206 9.49189 10.0356 7.49972 10.0356C5.50755 10.0356 3.89258 8.4206 3.89258 6.42843ZM2.44909 12.4496C3.12556 11.7731 4.04305 11.3931 4.99972 11.3931H9.99972C10.9564 11.3931 11.8739 11.7731 12.5504 12.4496C13.2268 13.126 13.6069 14.0435 13.6069 15.0002V16.4288C13.6069 16.843 13.2711 17.1788 12.8569 17.1788C12.4426 17.1788 12.1069 16.843 12.1069 16.4288V15.0002C12.1069 14.4414 11.8849 13.9054 11.4897 13.5102C11.0945 13.1151 10.5586 12.8931 9.99972 12.8931H4.99972C4.44087 12.8931 3.90491 13.1151 3.50975 13.5102C3.11458 13.9054 2.89258 14.4414 2.89258 15.0002V16.4288C2.89258 16.843 2.55679 17.1788 2.14258 17.1788C1.72836 17.1788 1.39258 16.843 1.39258 16.4288V15.0002C1.39258 14.0435 1.77262 13.126 2.44909 12.4496ZM15.714 6.39307C16.1282 6.39307 16.464 6.72885 16.464 7.14307V8.53564H17.8569C18.2711 8.53564 18.6069 8.87143 18.6069 9.28564C18.6069 9.69986 18.2711 10.0356 17.8569 10.0356H16.464V11.4288C16.464 11.843 16.1282 12.1788 15.714 12.1788C15.2998 12.1788 14.964 11.843 14.964 11.4288V10.0356H13.5712C13.157 10.0356 12.8212 9.69986 12.8212 9.28564C12.8212 8.87143 13.157 8.53564 13.5712 8.53564H14.964V7.14307C14.964 6.72885 15.2998 6.39307 15.714 6.39307Z" fill="#252D42"/>
</svg>
