<svg width="20" height="20" viewBox="0 0 20 20" fill="none" xmlns="http://www.w3.org/2000/svg">
<path d="M8.53113 10.6666C8.83788 11.0767 9.22924 11.416 9.67866 11.6616C10.1281 11.9071 10.6251 12.0531 11.1359 12.0897C11.6467 12.1263 12.1594 12.0526 12.6392 11.8736C13.1191 11.6946 13.5548 11.4145 13.9168 11.0523L16.0597 8.90948C16.7103 8.2359 17.0702 7.33375 17.0621 6.39733C17.054 5.46091 16.6784 4.56515 16.0162 3.90298C15.354 3.24081 14.4583 2.86521 13.5218 2.85707C12.5854 2.84893 11.6833 3.20891 11.0097 3.85948L9.78113 5.0809" stroke="#252D42" stroke-width="1.5" stroke-linecap="round" stroke-linejoin="round"/>
<path d="M11.3883 9.23837C11.0815 8.82828 10.6902 8.48896 10.2408 8.24342C9.79133 7.99787 9.29436 7.85186 8.78354 7.81528C8.27272 7.77869 7.76001 7.8524 7.28019 8.03139C6.80036 8.21038 6.36464 8.49047 6.00258 8.85266L3.85972 10.9955C3.20916 11.6691 2.84918 12.5712 2.85731 13.5077C2.86545 14.4441 3.24105 15.3398 3.90322 16.002C4.5654 16.6642 5.46115 17.0398 6.39757 17.0479C7.33399 17.0561 8.23614 16.6961 8.90972 16.0455L10.1311 14.8241" stroke="#252D42" stroke-width="1.5" stroke-linecap="round" stroke-linejoin="round"/>
</svg>
