<svg width="20" height="20" viewBox="0 0 20 20" fill="none" xmlns="http://www.w3.org/2000/svg">
<path fill-rule="evenodd" clip-rule="evenodd" d="M10 2.75C5.99594 2.75 2.75 5.99594 2.75 10C2.75 14.0041 5.99594 17.25 10 17.25C14.0041 17.25 17.25 14.0041 17.25 10C17.25 5.99594 14.0041 2.75 10 2.75ZM1.25 10C1.25 5.16751 5.16751 1.25 10 1.25C14.8325 1.25 18.75 5.16751 18.75 10C18.75 14.8325 14.8325 18.75 10 18.75C5.16751 18.75 1.25 14.8325 1.25 10Z" fill="#5B5F97"/>
<circle cx="7" cy="8" r="1" fill="#5B5F97"/>
<circle cx="13" cy="8" r="1" fill="#5B5F97"/>
<path fill-rule="evenodd" clip-rule="evenodd" d="M7.16475 10.8293C7.53524 10.6441 7.98574 10.7943 8.17098 11.1648C8.26638 11.3555 8.49394 11.6865 8.82978 11.9618C9.15939 12.232 9.55243 12.4168 10.0002 12.4168C10.4479 12.4168 10.8409 12.232 11.1706 11.9618C11.5064 11.6865 11.7339 11.3555 11.8293 11.1648C12.0146 10.7943 12.4651 10.6441 12.8356 10.8293C13.2061 11.0146 13.3562 11.4651 13.171 11.8356C12.9886 12.2003 12.6328 12.7027 12.1214 13.1219C11.6038 13.5461 10.8858 13.9168 10.0002 13.9168C9.11457 13.9168 8.3965 13.5461 7.87888 13.1219C7.3675 12.7027 7.01172 12.2003 6.82934 11.8356C6.6441 11.4651 6.79427 11.0146 7.16475 10.8293Z" fill="#5B5F97"/>
</svg>
