<svg width="20" height="21" viewBox="0 0 20 21" fill="none" xmlns="http://www.w3.org/2000/svg">
<path fill-rule="evenodd" clip-rule="evenodd" d="M2.89258 6.92857C2.89258 6.55381 3.19638 6.25 3.57115 6.25H11.4283C11.8031 6.25 12.1069 6.55381 12.1069 6.92857V10.4913C12.1068 10.4943 12.1068 10.4972 12.1068 10.5001C12.1068 10.5031 12.1068 10.506 12.1069 10.5089V14.0714C12.1069 14.4462 11.8031 14.75 11.4283 14.75H3.57115C3.19638 14.75 2.89258 14.4462 2.89258 14.0714V6.92857ZM13.6069 11.9576V14.0714C13.6069 15.2746 12.6315 16.25 11.4283 16.25H3.57115C2.36796 16.25 1.39258 15.2746 1.39258 14.0714V6.92857C1.39258 5.72538 2.36796 4.75 3.57115 4.75H11.4283C12.6315 4.75 13.6069 5.72538 13.6069 6.92857V9.04271L17.4209 6.31841C17.6495 6.15512 17.9502 6.13328 18.2 6.26184C18.4498 6.39039 18.6068 6.64777 18.6068 6.92871V14.0716C18.6068 14.3525 18.4498 14.6099 18.2 14.7384C17.9502 14.867 17.6495 14.8452 17.4209 14.6819L13.6069 11.9576ZM17.1068 12.6142L14.1472 10.5001L17.1068 8.38611V12.6142Z" fill="url(#paint0_linear_371_4494)"/>
<defs>
<linearGradient id="paint0_linear_371_4494" x1="1.96639" y1="4.75" x2="12.3161" y2="20.4081" gradientUnits="userSpaceOnUse">
<stop stop-color="#61B7E8"/>
<stop offset="1" stop-color="#A741F9"/>
</linearGradient>
</defs>
</svg>
