<svg width="20" height="20" viewBox="0 0 20 20" fill="none" xmlns="http://www.w3.org/2000/svg">
<path fill-rule="evenodd" clip-rule="evenodd" d="M5.75 6.42843C5.75 5.26469 6.6934 4.32129 7.85714 4.32129C9.02088 4.32129 9.96428 5.26469 9.96428 6.42843C9.96428 7.59217 9.02088 8.53557 7.85714 8.53557C6.6934 8.53557 5.75 7.59217 5.75 6.42843ZM7.85714 2.82129C5.86497 2.82129 4.25 4.43626 4.25 6.42843C4.25 8.4206 5.86497 10.0356 7.85714 10.0356C9.84931 10.0356 11.4643 8.4206 11.4643 6.42843C11.4643 4.43626 9.84931 2.82129 7.85714 2.82129ZM4.99997 11.3931C4.04329 11.3931 3.1258 11.7731 2.44933 12.4496C1.77286 13.126 1.39282 14.0435 1.39282 15.0002V16.4288C1.39282 16.843 1.72861 17.1788 2.14282 17.1788C2.55704 17.1788 2.89282 16.843 2.89282 16.4288V15.0002C2.89282 14.4414 3.11482 13.9054 3.50999 13.5102C3.90516 13.1151 4.44112 12.8931 4.99997 12.8931H10.7143C11.2731 12.8931 11.8091 13.1151 12.2042 13.5102C12.5994 13.9054 12.8214 14.4414 12.8214 15.0002V16.4288C12.8214 16.843 13.1572 17.1788 13.5714 17.1788C13.9856 17.1788 14.3214 16.843 14.3214 16.4288V15.0002C14.3214 14.0435 13.9414 13.126 13.2649 12.4496C12.5884 11.7731 11.6709 11.3931 10.7143 11.3931H4.99997ZM14.9881 12.0485C15.0917 11.6475 15.5007 11.4063 15.9018 11.5098C16.6756 11.7096 17.3612 12.1608 17.8509 12.7925C18.3405 13.4241 18.6066 14.2005 18.6072 14.9997V16.4289C18.6072 16.8431 18.2714 17.1789 17.8572 17.1789C17.4429 17.1789 17.1072 16.8431 17.1072 16.4289V15.0009C17.1068 14.534 16.9514 14.0804 16.6654 13.7115C16.3793 13.3425 15.9788 13.0789 15.5268 12.9622C15.1257 12.8587 14.8846 12.4496 14.9881 12.0485ZM13.0433 2.93768C12.642 2.83494 12.2334 3.07694 12.1307 3.47821C12.0279 3.87948 12.2699 4.28806 12.6712 4.39081C13.1245 4.50686 13.5262 4.77046 13.8131 5.14006C14.1 5.50966 14.2557 5.96423 14.2557 6.4321C14.2557 6.89997 14.1 7.35454 13.8131 7.72414C13.5262 8.09374 13.1245 8.35734 12.6712 8.47339C12.2699 8.57614 12.0279 8.98472 12.1307 9.38599C12.2334 9.78726 12.642 10.0293 13.0433 9.92652C13.8192 9.72786 14.5069 9.2766 14.998 8.6439C15.4891 8.0112 15.7557 7.23304 15.7557 6.4321C15.7557 5.63116 15.4891 4.853 14.998 4.2203C14.5069 3.5876 13.8192 3.13634 13.0433 2.93768Z" fill="#5B5F97"/>
</svg>
