<svg width="20" height="20" viewBox="0 0 20 20" fill="none" xmlns="http://www.w3.org/2000/svg">
	<path fill-rule="evenodd" clip-rule="evenodd" d="M3.60718 4.99986C3.60718 4.6251 3.91098 4.32129 4.28575 4.32129H15.7143C16.0891 4.32129 16.3929 4.6251 16.3929 4.99986V12.1427C16.3929 12.5175 16.0891 12.8213 15.7143 12.8213H10H4.28575C3.91098 12.8213 3.60718 12.5175 3.60718 12.1427V4.99986ZM15.7143 14.3213H10.75V15.6787H12.8571C13.2713 15.6787 13.6071 16.0145 13.6071 16.4287C13.6071 16.8429 13.2713 17.1787 12.8571 17.1787H7.14282C6.72861 17.1787 6.39282 16.8429 6.39282 16.4287C6.39282 16.0145 6.72861 15.6787 7.14282 15.6787H9.25V14.3213H4.28575C3.08256 14.3213 2.10718 13.3459 2.10718 12.1427V4.99986C2.10718 3.79667 3.08256 2.82129 4.28575 2.82129H15.7143C16.9175 2.82129 17.8929 3.79667 17.8929 4.99986V12.1427C17.8929 13.3459 16.9175 14.3213 15.7143 14.3213ZM9.51232 5.85889C9.49605 5.87284 9.48037 5.88747 9.46535 5.90273L7.32685 8.04124C7.03395 8.33413 7.03395 8.809 7.32685 9.1019C7.61974 9.39479 8.09461 9.39479 8.38751 9.1019L9.25 8.23941V10.7144C9.25 11.1286 9.58579 11.4644 10 11.4644C10.4142 11.4644 10.75 11.1286 10.75 10.7144V8.23934L11.6126 9.1019C11.9055 9.39479 12.3803 9.39479 12.6732 9.1019C12.9661 8.809 12.9661 8.33413 12.6732 8.04124L10.5304 5.89838C10.4544 5.82242 10.3662 5.76616 10.2721 5.7296C10.1878 5.69674 10.096 5.67871 10 5.67871H10C9.89184 5.67871 9.78902 5.70161 9.69613 5.74282C9.63084 5.77173 9.56883 5.81042 9.51232 5.85889Z" fill="#5B5F97"/>
</svg>
