<svg width="20" height="21" viewBox="0 0 20 21" fill="none" xmlns="http://www.w3.org/2000/svg">
<path fill-rule="evenodd" clip-rule="evenodd" d="M10 18.5C14.4183 18.5 18 14.9183 18 10.5C18 6.08172 14.4183 2.5 10 2.5C5.58172 2.5 2 6.08172 2 10.5C2 14.9183 5.58172 18.5 10 18.5ZM14.5575 8.00171C14.8346 7.69381 14.8096 7.2196 14.5017 6.94251C14.1938 6.66543 13.7196 6.69041 13.4425 6.99831L8.60018 12.3791L6.55725 10.1113C6.28001 9.80353 5.80579 9.77878 5.49803 10.056C5.19027 10.3333 5.16553 10.8075 5.44276 11.1152L8.04322 14.002C8.18549 14.1599 8.38809 14.2501 8.60065 14.25C8.81321 14.25 9.01576 14.1597 9.15795 14.0017L14.5575 8.00171Z" fill="url(#paint0_linear_435_1617)"/>
<defs>
<linearGradient id="paint0_linear_435_1617" x1="2.53333" y1="2.5" x2="18.184" y2="18.318" gradientUnits="userSpaceOnUse">
<stop stop-color="#61B7E8"/>
<stop offset="1" stop-color="#A741F9"/>
</linearGradient>
</defs>
</svg>
