<svg width="20" height="20" viewBox="0 0 20 20" fill="none" xmlns="http://www.w3.org/2000/svg">
<path fill-rule="evenodd" clip-rule="evenodd" d="M5.00084 4.32129C4.62607 4.32129 4.32227 4.6251 4.32227 4.99986V14.9999C4.32227 15.2828 4.49541 15.5253 4.74151 15.6271L12.3277 8.04096C12.4683 7.90031 12.6591 7.82129 12.858 7.82129C13.0569 7.82129 13.2477 7.90031 13.3883 8.04096L15.6794 10.332V4.99986C15.6794 4.6251 15.3756 4.32129 15.0008 4.32129H5.00084ZM17.1794 12.1377V4.99986C17.1794 3.79667 16.204 2.82129 15.0008 2.82129H5.00084C3.79765 2.82129 2.82227 3.79667 2.82227 4.99986V14.9999C2.82227 16.2023 3.79643 17.1772 4.9986 17.1784C4.9997 17.1784 5.00079 17.1784 5.00189 17.1784H15.0008C16.204 17.1784 17.1794 16.2031 17.1794 14.9999V12.1478C17.1794 12.1444 17.1794 12.141 17.1794 12.1377ZM15.6794 12.4534L12.858 9.63195L6.81152 15.6784H15.0008C15.3756 15.6784 15.6794 15.3746 15.6794 14.9999V12.4534ZM7.50085 9.42871C8.32928 9.42871 9.00085 8.75714 9.00085 7.92871C9.00085 7.10028 8.32928 6.42871 7.50085 6.42871C6.67243 6.42871 6.00085 7.10028 6.00085 7.92871C6.00085 8.75714 6.67243 9.42871 7.50085 9.42871Z" fill="#252D42"/>
</svg>
