<svg width="20" height="20" viewBox="0 0 20 20" fill="none" xmlns="http://www.w3.org/2000/svg">
<path fill-rule="evenodd" clip-rule="evenodd" d="M10.0003 3.60693C6.4696 3.60693 3.60742 6.46911 3.60742 9.99979C3.60742 13.5305 6.4696 16.3926 10.0003 16.3926C13.531 16.3926 16.3931 13.5305 16.3931 9.99979C16.3931 6.46911 13.531 3.60693 10.0003 3.60693ZM2.10742 9.99979C2.10742 5.64069 5.64117 2.10693 10.0003 2.10693C14.3594 2.10693 17.8931 5.64069 17.8931 9.99979C17.8931 14.3589 14.3594 17.8926 10.0003 17.8926C5.64117 17.8926 2.10742 14.3589 2.10742 9.99979ZM10.1786 7.19535C9.85441 7.13974 9.52099 7.20066 9.23741 7.36733C8.95382 7.53399 8.73837 7.79565 8.62921 8.10595C8.49176 8.49669 8.06357 8.70202 7.67283 8.56456C7.28209 8.42711 7.07676 7.99892 7.21421 7.60818C7.44092 6.96372 7.88839 6.42028 8.47738 6.07413C9.06637 5.72798 9.75886 5.60144 10.4322 5.71694C11.1055 5.83243 11.7163 6.18251 12.1563 6.70515C12.5961 7.22763 12.8369 7.88886 12.836 8.57181C12.8358 9.68398 12.0115 10.4152 11.4306 10.8025C11.1173 11.0114 10.8093 11.1649 10.5826 11.2656C10.4681 11.3165 10.3718 11.3551 10.3022 11.3816C10.2674 11.3949 10.2391 11.4052 10.2185 11.4125L10.1933 11.4213L10.1852 11.4241L10.1824 11.425L10.1812 11.4254L9.94314 10.7142C10.1803 11.4257 10.181 11.4255 10.1812 11.4254C9.78829 11.5564 9.36261 11.3443 9.23163 10.9514C9.10083 10.559 9.31242 10.1349 9.70432 10.0032L9.70551 10.0028L9.71595 9.99917C9.7267 9.99535 9.74446 9.98891 9.76822 9.97986C9.81586 9.96171 9.88688 9.93335 9.97336 9.89492C10.1484 9.8171 10.3762 9.70271 10.5985 9.55445C11.089 9.22751 11.336 8.88748 11.336 8.57135V8.57023C11.3365 8.24129 11.2205 7.9228 11.0087 7.67115C10.7969 7.41951 10.5028 7.25096 10.1786 7.19535ZM10.036 14.3569C10.4502 14.3569 10.786 14.0211 10.786 13.6069C10.786 13.1927 10.4502 12.8569 10.036 12.8569C9.6218 12.8569 9.28601 13.1927 9.28601 13.6069C9.28601 14.0211 9.6218 14.3569 10.036 14.3569Z" fill="#252D42"/>
</svg>
