<svg width="20" height="20" viewBox="0 0 20 20" fill="none" xmlns="http://www.w3.org/2000/svg">
	<path fill-rule="evenodd" clip-rule="evenodd" d="M8.93118 3.02824C9.25745 2.84455 9.62555 2.74805 9.99998 2.74805C10.3744 2.74805 10.7425 2.84455 11.0688 3.02824C11.3951 3.21193 11.6685 3.47662 11.8627 3.79675L11.8648 3.80031L17.921 13.9106C18.1112 14.2401 18.2118 14.6136 18.2128 14.994C18.2139 15.3744 18.1153 15.7484 17.927 16.0789C17.7386 16.4094 17.467 16.6848 17.1391 16.8777C16.8113 17.0706 16.4386 17.1744 16.0582 17.1785L16.05 17.1786L3.94174 17.1786C3.56135 17.1744 3.1887 17.0706 2.86085 16.8777C2.53299 16.6848 2.26136 16.4094 2.07299 16.0789C1.88461 15.7484 1.78605 15.3744 1.78712 14.994C1.78818 14.6136 1.88883 14.2401 2.07906 13.9107L2.08507 13.9003L8.13515 3.80032C8.32934 3.48018 8.60491 3.21193 8.93118 3.02824ZM9.42068 4.57324L9.4198 4.57469L3.37561 14.665C3.31794 14.7666 3.28744 14.8813 3.28711 14.9982C3.28678 15.1167 3.31748 15.2332 3.37615 15.3361C3.43483 15.4391 3.51943 15.5248 3.62155 15.5849C3.7227 15.6444 3.83753 15.6767 3.95483 15.6786H16.0451C16.1624 15.6767 16.2773 15.6444 16.3784 15.5849C16.4805 15.5248 16.5651 15.4391 16.6238 15.3361C16.6825 15.2332 16.7132 15.1167 16.7128 14.9982C16.7125 14.8813 16.682 14.7666 16.6243 14.665L10.5802 4.57469L10.5793 4.57324C10.5188 4.47418 10.434 4.39226 10.3329 4.33532C10.2313 4.2781 10.1166 4.24805 9.99998 4.24805C9.88336 4.24805 9.7687 4.2781 9.66707 4.33532C9.56594 4.39226 9.48111 4.47418 9.42068 4.57324ZM10 7.10693C10.4142 7.10693 10.75 7.44272 10.75 7.85693V10.7141C10.75 11.1283 10.4142 11.4641 10 11.4641C9.58579 11.4641 9.25 11.1283 9.25 10.7141V7.85693C9.25 7.44272 9.58579 7.10693 10 7.10693ZM10 14.3569C10.4142 14.3569 10.75 14.0211 10.75 13.6069C10.75 13.1927 10.4142 12.8569 10 12.8569C9.58579 12.8569 9.25 13.1927 9.25 13.6069C9.25 14.0211 9.58579 14.3569 10 14.3569Z" fill="#ffffff"/>
</svg>
