<svg width="18" height="20" viewBox="0 0 18 20" fill="none" xmlns="http://www.w3.org/2000/svg">
	<path fill-rule="evenodd" clip-rule="evenodd" d="M5.38007 2.04102C5.64455 2.04102 5.91065 2.08982 6.16135 2.18771C6.26377 1.89018 6.42967 1.61654 6.66321 1.38584C7.08073 0.973381 7.63734 0.777741 8.18152 0.790637C9.19725 0.814537 10.023 1.52293 10.2168 2.53389C10.4234 2.46419 10.6444 2.42527 10.8739 2.42126C11.4159 2.41195 11.971 2.60773 12.3887 3.01932C12.8148 3.43936 13.0181 4.00279 13.0181 4.59499V9.40722C13.5379 9.06332 14.1643 8.78912 14.9117 8.69467C16.0199 8.55443 16.9813 9.13417 17.3476 10.0225C17.7292 10.948 17.3907 12.0356 16.372 12.6082C15.537 13.0775 14.6364 14.0545 14.1255 14.9201C13.5486 16.1764 12.7949 17.2718 11.689 18.0452C10.5505 18.8412 9.16788 19.2067 7.51534 19.2067C5.51101 19.2067 3.74064 18.5132 2.46985 17.2733C1.20016 16.0345 0.5 14.32 0.5 12.4017V7.10328C0.5 6.5108 0.70335 5.95036 1.12189 5.53076C1.53168 5.11959 2.07987 4.91483 2.6217 4.91483C2.83586 4.91483 3.05105 4.94688 3.25825 5.011V4.22961C3.25825 3.63712 3.4616 3.07669 3.88014 2.65709C4.28993 2.24591 4.83813 2.04115 5.37996 2.04115L5.38007 2.04102ZM7.30863 2.9588C7.31233 1.68223 8.99064 1.72187 8.98693 2.99859V9.05097C8.98693 9.33419 9.22447 9.56389 9.51736 9.56389C9.81025 9.56389 10.0478 9.33419 10.0478 9.05097V4.62416C10.0478 4.34194 10.1307 4.1207 10.26 3.96111C10.7153 3.39855 11.7452 3.60061 11.7452 4.5951V10.8974C11.7452 11.003 11.7508 11.1322 11.7612 11.2716C11.7697 11.3844 11.7813 11.5039 11.7956 11.6227C11.8346 11.9449 12.2132 11.9974 12.4123 11.7364C12.4628 11.6705 12.5152 11.603 12.5697 11.5352C12.6801 11.3977 12.7991 11.2576 12.9277 11.12C12.9583 11.0873 12.9895 11.0546 13.0212 11.0223C13.538 10.4951 14.2033 10.0257 15.0769 9.91517C16.1565 9.77864 16.6808 11.0107 15.7322 11.5438C14.6357 12.1602 13.572 13.3514 12.986 14.3678C11.9278 16.7034 10.4199 17.9755 7.51541 17.9755C4.12804 17.9755 1.77317 15.6494 1.77317 12.4016V7.10323C1.77317 6.10887 2.80296 5.88905 3.25833 6.44377C3.38753 6.60119 3.47041 6.82102 3.47041 7.10323V9.70829C3.47041 10.0592 3.82649 10.3065 4.17031 10.1945C4.38609 10.1242 4.53127 9.92855 4.53127 9.70829V4.22963C4.53127 3.22256 5.58769 3.00988 6.03374 3.59178C6.15303 3.74763 6.22866 3.96017 6.22866 4.22963V9.05029C6.22866 9.33394 6.46649 9.56394 6.75984 9.56394C7.05258 9.56394 7.29027 9.33481 7.29102 9.05175V9.05032L7.2925 8.55086L7.30494 4.22955L7.3076 3.28187L7.30863 2.9588Z" fill="#fff"/>
</svg>
