<svg width="20" height="20" viewBox="0 0 20 20" fill="none" xmlns="http://www.w3.org/2000/svg">
<path fill-rule="evenodd" clip-rule="evenodd" d="M10.0005 2.10693C9.80158 2.10693 9.61081 2.18595 9.47016 2.3266C9.32951 2.46726 9.25049 2.65802 9.25049 2.85693V9.99979C9.25049 10.414 9.58627 10.7498 10.0005 10.7498H17.1433C17.5576 10.7498 17.8933 10.414 17.8933 9.99979C17.8933 8.96329 17.6892 7.93693 17.2925 6.97932C16.8959 6.02172 16.3145 5.15162 15.5816 4.4187C14.8487 3.68578 13.9786 3.10439 13.021 2.70774C12.0633 2.31109 11.037 2.10693 10.0005 2.10693ZM10.7505 9.24979V3.65108C11.3324 3.71983 11.9034 3.8684 12.4469 4.09356C13.2225 4.41483 13.9273 4.88573 14.5209 5.47936C15.1146 6.07299 15.5854 6.77773 15.9067 7.55335C16.1319 8.09693 16.2805 8.66785 16.3492 9.24979H10.7505ZM7.44339 4.1373C7.82303 3.97163 7.99649 3.52957 7.83082 3.14993C7.66516 2.77029 7.2231 2.59683 6.84345 2.7625C5.6618 3.27815 4.62445 4.07542 3.8221 5.0846C3.01976 6.09378 2.47684 7.28414 2.24081 8.55162C2.00479 9.8191 2.08284 11.1251 2.46816 12.3554C2.85347 13.5858 3.53431 14.703 4.45114 15.6094C5.36798 16.5159 6.49291 17.1839 7.72757 17.5551C8.96223 17.9264 10.269 17.9895 11.5337 17.739C12.7984 17.4885 13.9825 16.9321 14.9825 16.1182C15.9824 15.3044 16.7678 14.258 17.2699 13.0706C17.4312 12.6891 17.2527 12.249 16.8712 12.0877C16.4897 11.9264 16.0497 12.1049 15.8884 12.4864C15.4817 13.4482 14.8455 14.2957 14.0356 14.9548C13.2257 15.614 12.2667 16.0647 11.2423 16.2676C10.218 16.4705 9.15951 16.4193 8.15949 16.1187C7.15947 15.818 6.24833 15.2769 5.50573 14.5427C4.76313 13.8086 4.21169 12.9037 3.8996 11.9071C3.58751 10.9106 3.52429 9.85282 3.71546 8.82622C3.90663 7.79962 4.34637 6.83548 4.99624 6.01809C5.6461 5.2007 6.48631 4.55495 7.44339 4.1373Z" fill="#252D42"/>
</svg>
