<svg width="20" height="21" viewBox="0 0 20 21" fill="none" xmlns="http://www.w3.org/2000/svg">
<path fill-rule="evenodd" clip-rule="evenodd" d="M18.3771 17.8375L14.1571 13.6175C14.1271 13.5775 14.1171 13.5375 14.0771 13.5075C14.0471 13.4775 14.0071 13.4675 13.9771 13.4375L12.0371 11.4975L8.38715 7.8375L2.66715 2.1175C2.37715 1.8275 1.89715 1.8275 1.60715 2.1175C1.31715 2.4075 1.31715 2.8875 1.60715 3.1775L7.09715 8.6675V10.4975C7.09715 11.0675 7.26715 11.6275 7.58715 12.1075C7.90715 12.5875 8.35715 12.9575 8.88715 13.1675C9.23715 13.3175 9.61715 13.3875 9.99715 13.3875C10.1871 13.3875 10.3771 13.3675 10.5571 13.3275C10.8671 13.2675 11.1671 13.1475 11.4371 12.9975L12.4371 13.9975C11.9571 14.3375 11.4271 14.5775 10.8471 14.6975C10.0171 14.8675 9.15715 14.7875 8.37715 14.4675C7.58715 14.1475 6.91715 13.5975 6.45715 12.8975C5.98715 12.1875 5.73715 11.3575 5.74715 10.5175V9.0775C5.74715 8.6675 5.40715 8.3275 4.99715 8.3275C4.58715 8.3275 4.24715 8.6675 4.24715 9.0775V10.5075C4.23715 11.6475 4.57715 12.7775 5.20715 13.7275C5.83715 14.6775 6.74715 15.4275 7.80715 15.8675C8.26715 16.0575 8.75715 16.1775 9.24715 16.2375V17.5075C9.24715 17.5475 9.26715 17.5775 9.26715 17.6175H7.13715C6.72715 17.6175 6.38715 17.9475 6.38715 18.3675C6.38715 18.7875 6.72715 19.1175 7.13715 19.1175H12.8471C13.2571 19.1175 13.5971 18.7775 13.5971 18.3675C13.5971 17.9575 13.2571 17.6175 12.8471 17.6175H10.7271C10.7371 17.5775 10.7471 17.5475 10.7471 17.5075V16.2275C10.8771 16.2075 11.0171 16.2075 11.1471 16.1775C12.0071 15.9975 12.8171 15.6275 13.5071 15.0875L17.3171 18.8975C17.6071 19.1875 18.0871 19.1875 18.3771 18.8975C18.6771 18.5975 18.6771 18.1275 18.3771 17.8375ZM10.2671 11.8675C9.99715 11.9275 9.71715 11.8975 9.45715 11.7875C9.20715 11.6875 8.98715 11.5075 8.83715 11.2775C8.68715 11.0475 8.59715 10.7875 8.59715 10.5075V10.1775L10.2871 11.8675C10.2771 11.8675 10.2771 11.8675 10.2671 11.8675Z" fill="#252D42"/>
<path fill-rule="evenodd" clip-rule="evenodd" d="M7.74702 5.09732C8.14702 5.17732 8.54702 4.91732 8.62702 4.50732C8.69702 4.17732 8.88702 3.87732 9.16702 3.66732C9.44702 3.46732 9.78702 3.36732 10.137 3.40732C10.477 3.44732 10.797 3.60732 11.027 3.85732C11.257 4.11732 11.387 4.44732 11.387 4.79732V9.00732C11.387 9.41732 11.727 9.75732 12.137 9.75732C12.547 9.75732 12.887 9.41732 12.887 9.00732V4.79732C12.887 4.07732 12.627 3.38732 12.137 2.85732C11.657 2.31732 10.997 1.98732 10.287 1.91732C9.56702 1.83732 8.85702 2.03732 8.27702 2.45732C7.69702 2.88732 7.30702 3.50732 7.15702 4.21732C7.07702 4.61732 7.33702 5.01732 7.74702 5.09732Z" fill="#252D42"/>
<path fill-rule="evenodd" clip-rule="evenodd" d="M14.7871 12.1277C15.1971 12.1977 15.5871 11.9277 15.6571 11.5177C15.7171 11.1877 15.7471 10.8477 15.7471 10.5077V9.07773C15.7471 8.66773 15.4071 8.32773 14.9971 8.32773C14.5871 8.32773 14.2471 8.66773 14.2471 9.07773V10.5077C14.2471 10.7577 14.2271 11.0077 14.1771 11.2577C14.1071 11.6577 14.3771 12.0477 14.7871 12.1277Z" fill="#252D42"/>
</svg>
