<svg width="20" height="20" viewBox="0 0 20 20" fill="none" xmlns="http://www.w3.org/2000/svg">
<path fill-rule="evenodd" clip-rule="evenodd" d="M14.8161 6.24469C15.109 5.95179 15.109 5.47692 14.8161 5.18403C14.5232 4.89113 14.0483 4.89113 13.7555 5.18403L10.0001 8.93941L6.24469 5.18403C5.95179 4.89113 5.47692 4.89113 5.18403 5.18403C4.89113 5.47692 4.89113 5.95179 5.18403 6.24469L8.93941 10.0001L5.18403 13.7555C4.89113 14.0483 4.89113 14.5232 5.18403 14.8161C5.47692 15.109 5.95179 15.109 6.24469 14.8161L10.0001 11.0607L13.7555 14.8161C14.0483 15.109 14.5232 15.109 14.8161 14.8161C15.109 14.5232 15.109 14.0483 14.8161 13.7555L11.0607 10.0001L14.8161 6.24469Z" fill="#5B5F97"/>
</svg>
