<svg width="20" height="20" viewBox="0 0 20 20" fill="none" xmlns="http://www.w3.org/2000/svg">
<path fill-rule="evenodd" clip-rule="evenodd" d="M9.66516 17.81L9.64516 17.8C9.63516 17.79 9.61516 17.78 9.59516 17.77C9.54516 17.75 9.48516 17.71 9.39516 17.66C9.22516 17.57 8.99516 17.43 8.71516 17.26C8.15516 16.91 7.40516 16.4 6.65516 15.74C5.17516 14.45 3.53516 12.47 3.53516 9.99V4.99C3.53516 4.68 3.72516 4.4 4.02516 4.29L9.73516 2.15C9.90516 2.09 10.0952 2.09 10.2652 2.15L15.9752 4.29C16.2652 4.4 16.4652 4.68 16.4652 4.99V9.99C16.4652 12.47 14.8252 14.44 13.3552 15.73C12.6052 16.39 11.8552 16.9 11.2952 17.25C11.0152 17.43 10.7752 17.56 10.6152 17.65C10.5352 17.7 10.4652 17.73 10.4152 17.76C10.3952 17.77 10.3752 17.78 10.3652 17.79L10.3452 17.8L9.66516 17.81ZM9.66516 17.81C9.87516 17.92 10.1252 17.92 10.3352 17.81H9.66516ZM9.99516 16.28C10.1252 16.2 10.2952 16.1 10.4952 15.98C11.0052 15.66 11.6852 15.19 12.3652 14.6C13.7452 13.39 14.9652 11.79 14.9652 9.99V5.51L9.99516 3.65L5.03516 5.51V9.99C5.03516 11.8 6.25516 13.39 7.63516 14.6C8.31516 15.19 8.99516 15.66 9.50516 15.98C9.69516 16.11 9.86516 16.21 9.99516 16.28Z" fill="#252D42"/>
</svg>
