<svg width="20" height="20" viewBox="0 0 20 20" fill="none" xmlns="http://www.w3.org/2000/svg">
<path fill-rule="evenodd" clip-rule="evenodd" d="M3.60742 9.99979C3.60742 6.46911 6.4696 3.60693 10.0003 3.60693C13.531 3.60693 16.3931 6.46911 16.3931 9.99979C16.3931 13.5305 13.531 16.3926 10.0003 16.3926C6.4696 16.3926 3.60742 13.5305 3.60742 9.99979ZM10.0003 2.10693C5.64117 2.10693 2.10742 5.64069 2.10742 9.99979C2.10742 14.3589 5.64117 17.8926 10.0003 17.8926C14.3594 17.8926 17.8931 14.3589 17.8931 9.99979C17.8931 5.64069 14.3594 2.10693 10.0003 2.10693ZM8.98768 6.51903C8.75754 6.3656 8.46163 6.3513 8.21776 6.48181C7.97389 6.61233 7.82166 6.86647 7.82166 7.14307V12.8574C7.82166 13.1339 7.97389 13.3881 8.21776 13.5186C8.46163 13.6491 8.75754 13.6348 8.98768 13.4814L13.2734 10.6242C13.482 10.4851 13.6074 10.251 13.6074 10.0002C13.6074 9.74944 13.482 9.51527 13.2734 9.37617L8.98768 6.51903ZM9.32166 11.456V8.54446L11.5053 10.0002L9.32166 11.456Z" fill="#252D42"/>
</svg>
