<svg width="20" height="20" viewBox="0 0 20 20" fill="none" xmlns="http://www.w3.org/2000/svg">
<path d="M10 12.1426C11.1835 12.1426 12.1429 11.1833 12.1429 9.99979C12.1429 8.81632 11.1835 7.85693 10 7.85693C8.81657 7.85693 7.85718 8.81632 7.85718 9.99979C7.85718 11.1833 8.81657 12.1426 10 12.1426Z" stroke="#252D42" stroke-width="1.5" stroke-linecap="round" stroke-linejoin="round"/>
<path d="M15.2857 12.1431C15.1906 12.3585 15.1622 12.5975 15.2042 12.8292C15.2463 13.0609 15.3567 13.2747 15.5214 13.4431L15.5643 13.4859C15.6971 13.6186 15.8024 13.7762 15.8743 13.9496C15.9462 14.123 15.9832 14.3089 15.9832 14.4966C15.9832 14.6844 15.9462 14.8703 15.8743 15.0437C15.8024 15.2171 15.6971 15.3747 15.5643 15.5074C15.4316 15.6402 15.274 15.7455 15.1006 15.8174C14.9272 15.8893 14.7413 15.9263 14.5535 15.9263C14.3658 15.9263 14.1799 15.8893 14.0065 15.8174C13.8331 15.7455 13.6755 15.6402 13.5428 15.5074L13.5 15.4645C13.3316 15.2998 13.1178 15.1894 12.8861 15.1474C12.6544 15.1053 12.4154 15.1337 12.2 15.2288C11.9887 15.3193 11.8085 15.4697 11.6816 15.6613C11.5547 15.8529 11.4866 16.0775 11.4857 16.3074V16.4288C11.4857 16.8077 11.3352 17.171 11.0673 17.4389C10.7994 17.7068 10.436 17.8574 10.0571 17.8574C9.67823 17.8574 9.31487 17.7068 9.04696 17.4389C8.77905 17.171 8.62854 16.8077 8.62854 16.4288V16.3645C8.62301 16.1281 8.54648 15.8988 8.4089 15.7064C8.27132 15.5141 8.07906 15.3676 7.85711 15.2859C7.64167 15.1908 7.40268 15.1625 7.17097 15.2045C6.93926 15.2465 6.72545 15.357 6.55711 15.5216L6.51425 15.5645C6.38158 15.6973 6.22402 15.8027 6.05059 15.8746C5.87717 15.9465 5.69127 15.9835 5.50354 15.9835C5.3158 15.9835 5.12991 15.9465 4.95648 15.8746C4.78305 15.8027 4.6255 15.6973 4.49282 15.5645C4.36 15.4318 4.25463 15.2743 4.18274 15.1008C4.11085 14.9274 4.07384 14.7415 4.07384 14.5538C4.07384 14.366 4.11085 14.1802 4.18274 14.0067C4.25463 13.8333 4.36 13.6757 4.49282 13.5431L4.53568 13.5002C4.70035 13.3319 4.81081 13.1181 4.85283 12.8863C4.89484 12.6546 4.86648 12.4157 4.77139 12.2002C4.68085 11.9889 4.5305 11.8088 4.33887 11.6819C4.14723 11.5549 3.92267 11.4868 3.69282 11.4859H3.57139C3.19251 11.4859 2.82915 11.3354 2.56124 11.0675C2.29333 10.7996 2.14282 10.4362 2.14282 10.0574C2.14282 9.67847 2.29333 9.31511 2.56124 9.0472C2.82915 8.77929 3.19251 8.62878 3.57139 8.62878H3.63568C3.8721 8.62325 4.1014 8.54672 4.29375 8.40915C4.4861 8.27157 4.63262 8.07931 4.71425 7.85735C4.80933 7.64191 4.8377 7.40293 4.79568 7.17122C4.75367 6.93951 4.64321 6.72569 4.47854 6.55735L4.43568 6.5145C4.30286 6.38182 4.19749 6.22426 4.12559 6.05084C4.0537 5.87741 4.0167 5.69152 4.0167 5.50378C4.0167 5.31604 4.0537 5.13015 4.12559 4.95672C4.19749 4.7833 4.30286 4.62574 4.43568 4.49307C4.56836 4.36024 4.72591 4.25487 4.89934 4.18298C5.07276 4.11109 5.25866 4.07409 5.44639 4.07409C5.63413 4.07409 5.82003 4.11109 5.99345 4.18298C6.16688 4.25487 6.32443 4.36024 6.45711 4.49307L6.49997 4.53592C6.66831 4.70059 6.88212 4.81106 7.11383 4.85307C7.34554 4.89508 7.58453 4.86672 7.79997 4.77164H7.85711C8.06837 4.68109 8.24855 4.53075 8.37546 4.33911C8.50237 4.14748 8.57048 3.92291 8.57139 3.69307V3.57164C8.57139 3.19276 8.7219 2.82939 8.98981 2.56149C9.25772 2.29358 9.62109 2.14307 9.99997 2.14307C10.3788 2.14307 10.7422 2.29358 11.0101 2.56149C11.278 2.82939 11.4285 3.19276 11.4285 3.57164V3.63592C11.4295 3.86577 11.4976 4.09033 11.6245 4.28197C11.7514 4.47361 11.9316 4.62395 12.1428 4.7145C12.3583 4.80958 12.5972 4.83794 12.829 4.79593C13.0607 4.75391 13.2745 4.64345 13.4428 4.47878L13.4857 4.43592C13.6184 4.3031 13.7759 4.19773 13.9493 4.12584C14.1228 4.05395 14.3087 4.01694 14.4964 4.01694C14.6841 4.01694 14.87 4.05395 15.0435 4.12584C15.2169 4.19773 15.3744 4.3031 15.5071 4.43592C15.6399 4.5686 15.7453 4.72615 15.8172 4.89958C15.8891 5.07301 15.9261 5.2589 15.9261 5.44664C15.9261 5.63437 15.8891 5.82027 15.8172 5.9937C15.7453 6.16712 15.6399 6.32468 15.5071 6.45735L15.4643 6.50021C15.2996 6.66855 15.1891 6.88236 15.1471 7.11407C15.1051 7.34579 15.1335 7.58477 15.2285 7.80021V7.85735C15.3191 8.06862 15.4694 8.24879 15.6611 8.3757C15.8527 8.50262 16.0773 8.57072 16.3071 8.57164H16.4285C16.8074 8.57164 17.1708 8.72215 17.4387 8.99006C17.7066 9.25797 17.8571 9.62133 17.8571 10.0002C17.8571 10.3791 17.7066 10.7425 17.4387 11.0104C17.1708 11.2783 16.8074 11.4288 16.4285 11.4288H16.3643C16.1344 11.4297 15.9098 11.4978 15.7182 11.6247C15.5266 11.7516 15.3762 11.9318 15.2857 12.1431V12.1431Z" stroke="#252D42" stroke-width="1.5" stroke-linecap="round" stroke-linejoin="round"/>
</svg>
