<svg width="20" height="20" viewBox="0 0 20 20" fill="none" xmlns="http://www.w3.org/2000/svg">
	<path fill-rule="evenodd" clip-rule="evenodd" d="M5.57141 2.82129C4.05263 2.82129 2.82141 4.05251 2.82141 5.57129V6.57129C2.82141 8.09007 4.05263 9.32129 5.57141 9.32129H6.57141C8.09019 9.32129 9.32141 8.09007 9.32141 6.57129V5.57129C9.32141 4.05251 8.09019 2.82129 6.57141 2.82129H5.57141ZM4.32141 5.57129C4.32141 4.88093 4.88106 4.32129 5.57141 4.32129H6.57141C7.26177 4.32129 7.82141 4.88093 7.82141 5.57129V6.57129C7.82141 7.26164 7.26177 7.82129 6.57141 7.82129H5.57141C4.88106 7.82129 4.32141 7.26164 4.32141 6.57129V5.57129ZM13.4286 2.82129C11.9098 2.82129 10.6786 4.05251 10.6786 5.57129V6.57129C10.6786 8.09007 11.9098 9.32129 13.4286 9.32129H14.4286C15.9474 9.32129 17.1786 8.09007 17.1786 6.57129V5.57129C17.1786 4.05251 15.9474 2.82129 14.4286 2.82129H13.4286ZM12.1786 5.57129C12.1786 4.88093 12.7382 4.32129 13.4286 4.32129H14.4286C15.1189 4.32129 15.6786 4.88093 15.6786 5.57129V6.57129C15.6786 7.26164 15.1189 7.82129 14.4286 7.82129H13.4286C12.7382 7.82129 12.1786 7.26164 12.1786 6.57129V5.57129ZM10.6786 13.4287C10.6786 11.9099 11.9098 10.6787 13.4286 10.6787H14.4286C15.9474 10.6787 17.1786 11.9099 17.1786 13.4287V14.4287C17.1786 15.9475 15.9474 17.1787 14.4286 17.1787H13.4286C11.9098 17.1787 10.6786 15.9475 10.6786 14.4287V13.4287ZM13.4286 12.1787C12.7382 12.1787 12.1786 12.7384 12.1786 13.4287V14.4287C12.1786 15.1191 12.7382 15.6787 13.4286 15.6787H14.4286C15.1189 15.6787 15.6786 15.1191 15.6786 14.4287V13.4287C15.6786 12.7384 15.1189 12.1787 14.4286 12.1787H13.4286ZM5.57141 10.6787C4.05263 10.6787 2.82141 11.9099 2.82141 13.4287V14.4287C2.82141 15.9475 4.05263 17.1787 5.57141 17.1787H6.57141C8.09019 17.1787 9.32141 15.9475 9.32141 14.4287V13.4287C9.32141 11.9099 8.09019 10.6787 6.57141 10.6787H5.57141ZM4.32141 13.4287C4.32141 12.7384 4.88106 12.1787 5.57141 12.1787H6.57141C7.26177 12.1787 7.82141 12.7384 7.82141 13.4287V14.4287C7.82141 15.1191 7.26177 15.6787 6.57141 15.6787H5.57141C4.88106 15.6787 4.32141 15.1191 4.32141 14.4287V13.4287Z" fill="#5B5F97"/>
</svg>
