<svg width="20" height="21" viewBox="0 0 20 21" fill="none" xmlns="http://www.w3.org/2000/svg">
<path fill-rule="evenodd" clip-rule="evenodd" d="M7.95472 2.74036C8.49724 2.19785 9.23305 1.89307 10.0003 1.89307C10.7675 1.89307 11.5033 2.19785 12.0458 2.74036C12.5884 3.28288 12.8931 4.01869 12.8931 4.78592V10.5002C12.8931 11.2674 12.5884 12.0033 12.0458 12.5458C11.5033 13.0883 10.7675 13.3931 10.0003 13.3931C9.23305 13.3931 8.49724 13.0883 7.95472 12.5458C7.4122 12.0033 7.10742 11.2674 7.10742 10.5002V4.78592C7.10742 4.01869 7.4122 3.28288 7.95472 2.74036ZM10.0003 3.39307C9.63087 3.39307 9.27659 3.53981 9.01538 3.80102C8.75417 4.06224 8.60742 4.41651 8.60742 4.78592V10.5002C8.60742 10.8696 8.75417 11.2239 9.01538 11.4851C9.27659 11.7463 9.63087 11.8931 10.0003 11.8931C10.3697 11.8931 10.724 11.7463 10.9852 11.4851C11.2464 11.2239 11.3931 10.8696 11.3931 10.5002V4.78592C11.3931 4.41651 11.2464 4.06224 10.9852 3.80102C10.724 3.53981 10.3697 3.39307 10.0003 3.39307Z" fill="url(#paint0_linear_371_4483)"/>
<path fill-rule="evenodd" clip-rule="evenodd" d="M5 8.32129C5.41421 8.32129 5.75 8.65708 5.75 9.07129V10.4999C5.75 11.627 6.19777 12.708 6.9948 13.5051C7.79183 14.3021 8.87283 14.7499 10 14.7499C11.1272 14.7499 12.2082 14.3021 13.0052 13.5051C13.8022 12.708 14.25 11.627 14.25 10.4999V9.07129C14.25 8.65708 14.5858 8.32129 15 8.32129C15.4142 8.32129 15.75 8.65708 15.75 9.07129V10.4999C15.75 12.0249 15.1442 13.4874 14.0659 14.5657C13.1659 15.4657 11.9982 16.0366 10.75 16.2008V17.6069H12.8571C13.2714 17.6069 13.6071 17.9427 13.6071 18.3569C13.6071 18.7711 13.2714 19.1069 12.8571 19.1069H10.0179C10.012 19.1071 10.006 19.1071 10 19.1071C9.99401 19.1071 9.98804 19.1071 9.98208 19.1069H7.14285C6.72864 19.1069 6.39285 18.7711 6.39285 18.3569C6.39285 17.9427 6.72864 17.6069 7.14285 17.6069H9.25V16.2008C8.00178 16.0366 6.83414 15.4657 5.93414 14.5657C4.8558 13.4874 4.25 12.0249 4.25 10.4999V9.07129C4.25 8.65708 4.58579 8.32129 5 8.32129Z" fill="url(#paint1_linear_371_4483)"/>
<defs>
<linearGradient id="paint0_linear_371_4483" x1="7.30028" y1="1.89307" x2="16.3904" y2="6.51525" gradientUnits="userSpaceOnUse">
<stop stop-color="#61B7E8"/>
<stop offset="1" stop-color="#A741F9"/>
</linearGradient>
<linearGradient id="paint1_linear_371_4483" x1="4.63333" y1="8.32129" x2="15.1549" y2="19.6594" gradientUnits="userSpaceOnUse">
<stop stop-color="#61B7E8"/>
<stop offset="1" stop-color="#A741F9"/>
</linearGradient>
</defs>
</svg>
