<svg width="20" height="20" viewBox="0 0 20 20" fill="none" xmlns="http://www.w3.org/2000/svg">
	<path fill-rule="evenodd" clip-rule="evenodd" d="M14.2858 3.28564C14.8381 3.28564 15.2858 3.73336 15.2858 4.28564V15.7142C15.2858 16.2665 14.8381 16.7142 14.2858 16.7142C13.7335 16.7142 13.2858 16.2665 13.2858 15.7142V4.28564C13.2858 3.73336 13.7335 3.28564 14.2858 3.28564ZM10 7.57129C10.5523 7.57129 11 8.019 11 8.57129V15.7141C11 16.2664 10.5523 16.7141 10 16.7141C9.44772 16.7141 9 16.2664 9 15.7141V8.57129C9 8.019 9.44772 7.57129 10 7.57129ZM6.71423 12.8569C6.71423 12.3046 6.26652 11.8569 5.71423 11.8569C5.16195 11.8569 4.71423 12.3046 4.71423 12.8569V15.7141C4.71423 16.2664 5.16195 16.7141 5.71423 16.7141C6.26652 16.7141 6.71423 16.2664 6.71423 15.7141V12.8569Z" fill="#ffffff"/>
</svg>
