<svg width="20" height="20" viewBox="0 0 20 20" fill="none" xmlns="http://www.w3.org/2000/svg">
<path fill-rule="evenodd" clip-rule="evenodd" d="M15.9829 3.91729C15.6611 3.59535 15.1392 3.59527 14.8173 3.91711C14.4953 4.23896 14.4952 4.76085 14.8171 5.08279C16.1342 6.40032 16.8742 8.18704 16.8742 10.05C16.8742 11.913 16.1342 13.6997 14.8171 15.0173C14.4952 15.3392 14.4953 15.8611 14.8173 16.183C15.1392 16.5048 15.6611 16.5047 15.9829 16.1828C17.6091 14.5561 18.5227 12.3502 18.5227 10.05C18.5227 7.74992 17.6091 5.54396 15.9829 3.91729ZM13.2119 6.68836C12.89 6.36642 12.3681 6.36634 12.0462 6.68819C11.7243 7.01003 11.7242 7.53192 12.046 7.85386C12.6273 8.43534 12.9539 9.22389 12.9539 10.0461C12.9539 10.8683 12.6273 11.6569 12.046 12.2384C11.7242 12.5603 11.7243 13.0822 12.0462 13.404C12.3681 13.7259 12.89 13.7258 13.2119 13.4039C14.1022 12.5132 14.6024 11.3055 14.6024 10.0461C14.6024 8.78677 14.1022 7.57898 13.2119 6.68836ZM9.88935 4.55473C9.88935 4.23788 9.70773 3.94908 9.42215 3.81183C9.13658 3.67457 8.7976 3.71316 8.55019 3.9111L4.85093 6.8705H2.00004C1.54481 6.8705 1.17578 7.23953 1.17578 7.69476V12.4048C1.17578 12.86 1.54481 13.2291 2.00004 13.2291H4.85093L8.55019 16.1885C8.7976 16.3864 9.13658 16.425 9.42215 16.2877C9.70773 16.1505 9.88935 15.8617 9.88935 15.5448V4.55473ZM5.65497 8.3384L8.24084 6.2697V13.8299L5.65497 11.7612C5.50882 11.6442 5.32723 11.5805 5.14006 11.5805H2.82429V8.51902H5.14006C5.32723 8.51902 5.50882 8.45532 5.65497 8.3384Z" fill="#252D42"/>
</svg>
