<svg width="20" height="20" viewBox="0 0 20 20" fill="none" xmlns="http://www.w3.org/2000/svg">
<path fill-rule="evenodd" clip-rule="evenodd" d="M7.57143 3.25C5.18477 3.25 3.25 5.18477 3.25 7.57143V8.28571C3.25 8.69993 3.58579 9.03571 4 9.03571C4.41421 9.03571 4.75 8.69993 4.75 8.28571V7.57143C4.75 6.0132 6.0132 4.75 7.57143 4.75H8.28571C8.69993 4.75 9.03571 4.41421 9.03571 4C9.03571 3.58579 8.69993 3.25 8.28571 3.25H7.57143ZM12.4286 3.25C14.8152 3.25 16.75 5.18477 16.75 7.57143V8.28571C16.75 8.69993 16.4142 9.03571 16 9.03571C15.5858 9.03571 15.25 8.69993 15.25 8.28571V7.57143C15.25 6.0132 13.9868 4.75 12.4286 4.75H11.7143C11.3001 4.75 10.9643 4.41421 10.9643 4C10.9643 3.58579 11.3001 3.25 11.7143 3.25H12.4286ZM3.25 12.4286C3.25 14.8152 5.18477 16.75 7.57143 16.75H8.28571C8.69993 16.75 9.03571 16.4142 9.03571 16C9.03571 15.5858 8.69993 15.25 8.28571 15.25H7.57143C6.0132 15.25 4.75 13.9868 4.75 12.4286V11.7143C4.75 11.3001 4.41421 10.9643 4 10.9643C3.58579 10.9643 3.25 11.3001 3.25 11.7143V12.4286ZM12.4286 16.75C14.8152 16.75 16.75 14.8152 16.75 12.4286V11.7143C16.75 11.3001 16.4142 10.9643 16 10.9643C15.5858 10.9643 15.25 11.3001 15.25 11.7143V12.4286C15.25 13.9868 13.9868 15.25 12.4286 15.25H11.7143C11.3001 15.25 10.9643 15.5858 10.9643 16C10.9643 16.4142 11.3001 16.75 11.7143 16.75H12.4286Z" fill="#252D42"/>
</svg>
