<svg width="20" height="20" viewBox="0 0 20 20" fill="none" xmlns="http://www.w3.org/2000/svg">
	<path fill-rule="evenodd" clip-rule="evenodd" d="M7.74751 4.59722C8.14751 4.67722 8.54751 4.41722 8.62751 4.00722C8.69751 3.67722 8.88751 3.37722 9.16751 3.16722C9.44751 2.96722 9.78751 2.86722 10.1375 2.90722C10.4775 2.94722 10.7975 3.10722 11.0275 3.35722C11.2575 3.61722 11.3875 3.94722 11.3875 4.29722V8.50722C11.3875 8.91722 11.7275 9.25722 12.1375 9.25722C12.5475 9.25722 12.8875 8.91722 12.8875 8.50722V4.29722C12.8875 3.57722 12.6275 2.88722 12.1375 2.35722C11.6575 1.81722 10.9975 1.48722 10.2875 1.41722C9.56751 1.33722 8.85751 1.53722 8.27751 1.95722C7.69751 2.38722 7.30751 3.00722 7.15751 3.71722C7.07751 4.11722 7.33751 4.51722 7.74751 4.59722ZM18.3775 17.3374L14.1575 13.1174C14.1467 13.103 14.1386 13.0887 14.1306 13.0748C14.1165 13.05 14.1032 13.0266 14.0775 13.0074C14.0625 12.9924 14.045 12.9824 14.0275 12.9724C14.01 12.9624 13.9925 12.9524 13.9775 12.9374L12.0375 10.9974L8.38751 7.3374L2.66751 1.6174C2.37751 1.3274 1.89751 1.3274 1.60751 1.6174C1.31751 1.9074 1.31751 2.3874 1.60751 2.6774L7.09751 8.1674V9.9974C7.09751 10.5674 7.26751 11.1274 7.58751 11.6074C7.90751 12.0874 8.35751 12.4574 8.88751 12.6674C9.23751 12.8174 9.61751 12.8874 9.99751 12.8874C10.1875 12.8874 10.3775 12.8674 10.5575 12.8274C10.8675 12.7674 11.1675 12.6474 11.4375 12.4974L12.4375 13.4974C11.9575 13.8374 11.4275 14.0774 10.8475 14.1974C10.0175 14.3674 9.15751 14.2874 8.37751 13.9674C7.58751 13.6474 6.91751 13.0974 6.45751 12.3974C5.98751 11.6874 5.73751 10.8574 5.74751 10.0174V8.5774C5.74751 8.1674 5.40751 7.8274 4.99751 7.8274C4.58751 7.8274 4.24751 8.1674 4.24751 8.5774V10.0074C4.23751 11.1474 4.57751 12.2774 5.20751 13.2274C5.83751 14.1774 6.74751 14.9274 7.80751 15.3674C8.26751 15.5574 8.75751 15.6774 9.24751 15.7374V17.0074C9.24751 17.0274 9.25251 17.0449 9.25751 17.0624C9.26252 17.0799 9.26751 17.0974 9.26751 17.1174H7.13751C6.72751 17.1174 6.38751 17.4474 6.38751 17.8674C6.38751 18.2874 6.72751 18.6174 7.13751 18.6174H12.8475C13.2575 18.6174 13.5975 18.2774 13.5975 17.8674C13.5975 17.4574 13.2575 17.1174 12.8475 17.1174H10.7275L10.7326 17.0976L10.7326 17.0976C10.7407 17.0668 10.7475 17.0405 10.7475 17.0074V15.7274C10.8 15.7193 10.854 15.7145 10.9084 15.7097C10.9889 15.7025 11.07 15.6953 11.1475 15.6774C12.0075 15.4974 12.8175 15.1274 13.5075 14.5874L17.3175 18.3974C17.6075 18.6874 18.0875 18.6874 18.3775 18.3974C18.6775 18.0974 18.6775 17.6274 18.3775 17.3374ZM10.2675 11.3674C9.99751 11.4274 9.71751 11.3974 9.45751 11.2874C9.20751 11.1874 8.98751 11.0074 8.83751 10.7774C8.68751 10.5474 8.59751 10.2874 8.59751 10.0074V9.6774L10.2875 11.3674H10.2675ZM15.6575 11.0176C15.5875 11.4276 15.1975 11.6976 14.7875 11.6276C14.3775 11.5476 14.1075 11.1576 14.1775 10.7576C14.2275 10.5076 14.2475 10.2576 14.2475 10.0076V8.57764C14.2475 8.16764 14.5875 7.82764 14.9975 7.82764C15.4075 7.82764 15.7475 8.16764 15.7475 8.57764V10.0076C15.7475 10.3476 15.7175 10.6876 15.6575 11.0176Z" fill="#E85D5D"/>
</svg>
