<svg width="20" height="20" viewBox="0 0 20 20" fill="none" xmlns="http://www.w3.org/2000/svg">
<path fill-rule="evenodd" clip-rule="evenodd" d="M8.29444 3.83705C5.8251 4.51905 3.95521 6.64542 3.65093 9.25H6.43169C6.59437 7.31342 7.2374 5.45382 8.29444 3.83705ZM11.7059 3.837C12.763 5.45378 13.4061 7.31341 13.5687 9.25H16.3496C16.0453 6.64536 14.1754 4.51895 11.7059 3.837ZM12.0627 9.25C11.8792 7.34844 11.164 5.53695 10.0002 4.02351C8.83646 5.53695 8.12125 7.34844 7.93776 9.25H12.0627ZM7.93772 10.75H12.0627C11.8793 12.6517 11.1641 14.4634 10.0002 15.977C8.83636 14.4634 8.12113 12.6517 7.93772 10.75ZM6.43165 10.75H3.65098C3.95538 13.3541 5.82487 15.4802 8.29373 16.1623C7.23703 14.5457 6.59422 12.6863 6.43165 10.75ZM11.7067 16.1624C12.7634 14.5457 13.4062 12.6863 13.5688 10.75H16.3496C16.0452 13.3542 14.1756 15.4803 11.7067 16.1624ZM10.0274 17.8926C14.374 17.878 17.893 14.35 17.8931 10V9.99979C17.8931 5.64069 14.3594 2.10693 10.0003 2.10693C5.64117 2.10693 2.10742 5.64069 2.10742 9.99979C2.10742 14.3498 5.62645 17.8779 9.97302 17.8926C9.98206 17.8929 9.99113 17.8931 10.0002 17.8931C10.0093 17.8931 10.0183 17.8929 10.0274 17.8926Z" fill="#252D42"/>
</svg>
