<svg width="20" height="20" viewBox="0 0 20 20" fill="none" xmlns="http://www.w3.org/2000/svg">
	<path fill-rule="evenodd" clip-rule="evenodd" d="M4.99998 4.32129C4.82001 4.32129 4.64742 4.39278 4.52016 4.52004C4.3929 4.64729 4.32141 4.81989 4.32141 4.99986V14.6178L5.89822 13.041C6.03888 12.9003 6.22964 12.8213 6.42855 12.8213H15C15.18 12.8213 15.3525 12.7498 15.4798 12.6225C15.6071 12.4953 15.6786 12.3227 15.6786 12.1427V4.99986C15.6786 4.81989 15.6071 4.64729 15.4798 4.52004C15.3525 4.39278 15.18 4.32129 15 4.32129H4.99998ZM3.4595 3.45938C3.86806 3.05082 4.42219 2.82129 4.99998 2.82129H15C15.5778 2.82129 16.1319 3.05082 16.5405 3.45938C16.949 3.86794 17.1786 4.42207 17.1786 4.99986V12.1427C17.1786 12.7205 16.949 13.2746 16.5405 13.6832C16.1319 14.0918 15.5778 14.3213 15 14.3213H6.73921L4.10174 16.9588C3.88724 17.1733 3.56465 17.2374 3.2844 17.1213C3.00414 17.0053 2.82141 16.7318 2.82141 16.4284V4.99986C2.82141 4.42207 3.05094 3.86794 3.4595 3.45938Z" fill="#5B5F97"/>
</svg>
