<svg width="20" height="20" viewBox="0 0 20 20" fill="none" xmlns="http://www.w3.org/2000/svg">
<path fill-rule="evenodd" clip-rule="evenodd" d="M3.60742 9.99979C3.60742 6.46911 6.4696 3.60693 10.0003 3.60693C13.531 3.60693 16.3931 6.46911 16.3931 9.99979C16.3931 13.5305 13.531 16.3926 10.0003 16.3926C6.4696 16.3926 3.60742 13.5305 3.60742 9.99979ZM10.0003 2.10693C5.64117 2.10693 2.10742 5.64069 2.10742 9.99979C2.10742 14.3589 5.64117 17.8926 10.0003 17.8926C14.3594 17.8926 17.8931 14.3589 17.8931 9.99979C17.8931 5.64069 14.3594 2.10693 10.0003 2.10693ZM14.0002 10C14.0002 12.2091 12.2094 14 10.0002 14C7.79111 14 6.00024 12.2091 6.00024 10C6.00024 7.79086 7.79111 6 10.0002 6C12.2094 6 14.0002 7.79086 14.0002 10Z" fill="#252D42"/>
</svg>
