<svg width="20" height="20" viewBox="0 0 20 20" fill="none" xmlns="http://www.w3.org/2000/svg">
	<path fill-rule="evenodd" clip-rule="evenodd" d="M14.816 6.24469C15.1089 5.95179 15.1089 5.47692 14.816 5.18403C14.5231 4.89113 14.0482 4.89113 13.7553 5.18403L9.99995 8.93941L6.24456 5.18403C5.95167 4.89113 5.4768 4.89113 5.1839 5.18403C4.89101 5.47692 4.89101 5.95179 5.1839 6.24469L8.93929 10.0001L5.1839 13.7555C4.89101 14.0483 4.89101 14.5232 5.1839 14.8161C5.4768 15.109 5.95167 15.109 6.24456 14.8161L9.99995 11.0607L13.7553 14.8161C14.0482 15.109 14.5231 15.109 14.816 14.8161C15.1089 14.5232 15.1089 14.0483 14.816 13.7555L11.0606 10.0001L14.816 6.24469Z" fill="#ffffff"/>
</svg>
