<svg width="20" height="20" viewBox="0 0 20 20" fill="none" xmlns="http://www.w3.org/2000/svg">
<path fill-rule="evenodd" clip-rule="evenodd" d="M2.67291 1.61274C2.38002 1.31984 1.90514 1.31984 1.61225 1.61274C1.31935 1.90563 1.31935 2.3805 1.61225 2.6734L3.2177 4.27885C2.77096 4.3523 2.35496 4.5638 2.03067 4.88809C1.62211 5.29665 1.39258 5.85078 1.39258 6.42857V13.5714C1.39258 14.1492 1.62211 14.7034 2.03067 15.1119C2.43923 15.5205 2.99336 15.75 3.57115 15.75H11.4283C12.0061 15.75 12.5602 15.5205 12.9688 15.1119C13.1553 14.9254 13.3046 14.7085 13.4117 14.4728L17.3265 18.3877C17.6194 18.6806 18.0943 18.6806 18.3872 18.3877C18.6801 18.0948 18.6801 17.6199 18.3872 17.327L13.3976 12.3375C13.3942 12.3339 13.3907 12.3303 13.3872 12.3268L5.53005 4.46967C5.52653 4.46615 5.52298 4.46267 5.5194 4.45923L2.67291 1.61274ZM4.68885 5.75L12.1069 13.168V13.5714C12.1069 13.7514 12.0354 13.924 11.9081 14.0513C11.7809 14.1785 11.6083 14.25 11.4283 14.25H3.57115C3.39118 14.25 3.21858 14.1785 3.09133 14.0513C2.96407 13.924 2.89258 13.7514 2.89258 13.5714V6.42857C2.89258 6.2486 2.96407 6.07601 3.09133 5.94875C3.21858 5.82149 3.39118 5.75 3.57115 5.75H4.68885ZM9.04258 5.75H11.4283C11.6083 5.75 11.7809 5.82149 11.9081 5.94875C12.0354 6.07601 12.1069 6.2486 12.1069 6.42857V8.81429C12.1069 9.0132 12.1859 9.20396 12.3265 9.34462L13.0408 10.0589C13.3013 10.3193 13.7123 10.3521 14.0107 10.1363L17.1069 7.89671V13.5714C17.1069 13.9856 17.4427 14.3214 17.8569 14.3214C18.2711 14.3214 18.6069 13.9856 18.6069 13.5714V6.42857C18.6069 6.14683 18.449 5.88885 18.1981 5.76067C17.9472 5.6325 17.6456 5.65576 17.4173 5.82088L13.6495 8.54626L13.6069 8.50363V6.42857C13.6069 5.85078 13.3773 5.29665 12.9688 4.88809C12.5602 4.47953 12.0061 4.25 11.4283 4.25H9.04258C8.62837 4.25 8.29258 4.58579 8.29258 5C8.29258 5.41421 8.62837 5.75 9.04258 5.75Z" fill="#252D42"/>
</svg>
